# xmcd
#
# Track frame offsets:
# 150
# 7941
# 9779
# 19976
# 26086
# 29830
# 41171
# 55590
# 60950
# 83901
# 99604
# 104682
# 116420
# 120748
# 130035
# 134441
# 144789
# 150870
# 158669
# 160100
# 205366
# 221997
# 232979
# 242875
# 256594
# 265956
#
# Disc length: 3677 seconds
#
# Revision: 2
# Processed by: cddbd v1.5.1PL0 Copyright (c) Steve Scherf et al.
# Submitted via: inCDius 2.0b9
#
DISCID=540e5b1a
DTITLE=LYRICS - Hot Country
DYEAR=1997
DGENRE=Country
TTITLE0=Intro
TTITLE1=Tuning Notes
TTITLE2=Chapter 02  Ex  1-15
TTITLE3=Chapter 03  Ex 16-20
TTITLE4=Chapter 05  Ex 21-25
TTITLE5=Chapter 06  Ex 26-32
TTITLE6=Chapter 07  Ex 33-36
TTITLE7=Chapter 08  Ex 37-39
TTITLE8=Chapter 09  Ex 40-51
TTITLE9=Chapter 10  Ex 52-57
TTITLE10=Chapter 11  Ex 58-63
TTITLE11=Chapter 12  Ex 64 - 68
TTITLE12=Chapter 13  Ex 69 - 74
TTITLE13=Chapter 14  Ex 75 - 82
TTITLE14=Chapter 15  Ex 83 - 86
TTITLE15=Chapter 16  Ex 87 - 90
TTITLE16=Chapter 17  Ex 91 - 97
TTITLE17=Chapter 18  Ex 98 - 103
TTITLE18=Chapter 19  Ex 104 - 105
TTITLE19=Chapter 20  Ex 106 - 145
TTITLE20=Ex 146  Ballad backing track
TTITLE21=Ex 147  Backing track in C
TTITLE22=Ex 148  Backing track in G
TTITLE23=Ex 149  Backing track in D
TTITLE24=Ex 150  Backing track in A
TTITLE25=Ex 151  Backing track in E
EXTD=YEAR: 1997
EXTT0=
EXTT1=
EXTT2=
EXTT3=
EXTT4=
EXTT5=
EXTT6=
EXTT7=
EXTT8=
EXTT9=
EXTT10=
EXTT11=
EXTT12=
EXTT13=
EXTT14=
EXTT15=
EXTT16=
EXTT17=
EXTT18=
EXTT19=
EXTT20=
EXTT21=
EXTT22=
EXTT23=
EXTT24=
EXTT25=
PLAYORDER=
